<svg width="25" height="30" viewBox="0 0 25 30" fill="none" xmlns="http://www.w3.org/2000/svg">
<path d="M25 19.4273C24.8507 20.8307 24.5148 22.137 23.9773 23.3463C23.41 24.6228 22.6336 25.7277 21.6483 26.6682C20.8196 27.452 19.8417 28.0866 18.6996 28.5867C18.4757 28.6838 18.2442 28.7733 18.0128 28.8629C16.5796 29.3929 14.9074 29.6542 13.0113 29.6542C10.8764 29.6542 8.99522 29.2959 7.37534 28.5867C5.75545 27.8775 4.39683 26.8772 3.29949 25.5784C2.20961 24.2869 1.38101 22.7268 0.828605 20.8904C0.276202 19.0615 0 17.0385 0 14.8214C0 12.6043 0.306062 10.4768 0.91072 8.65539C1.51538 6.83396 2.38877 5.28125 3.51597 3.98982C4.65064 2.69839 6.01672 1.71302 7.62914 1.02625C9.2341 0.33948 11.0555 -0.00390625 13.086 -0.00390625C14.8776 -0.00390625 16.4377 0.220041 17.774 0.667936C18.095 0.772445 18.401 0.891883 18.6996 1.02625C19.6327 1.43682 20.4389 1.95937 21.1332 2.60135C22.0439 3.44488 22.7755 4.46011 23.3279 5.64703C23.8205 6.69959 24.1639 7.70735 24.3729 8.64046C24.4775 9.08836 24.5521 9.70048 24.5745 10.1334H18.6474C18.4533 9.14808 18.1621 8.29708 17.7665 7.57298C17.55 7.16988 17.2962 6.8041 17.0125 6.4831C16.1839 5.53506 14.8701 5.05731 13.0785 5.05731C10.8092 5.05731 9.09227 5.90831 7.92027 7.61031C6.74828 9.31231 6.15855 11.716 6.15855 14.8214C6.15855 17.9268 6.78561 20.3678 8.03971 22.0549C9.29382 23.742 10.9734 24.5855 13.0785 24.5855C14.9 24.5855 16.2362 24.1152 17.0947 23.1821C17.9083 22.2938 18.4309 21.0397 18.6623 19.4198H25V19.4273Z" fill="white"/>
</svg>
