<svg width="21" height="21" viewBox="0 0 21 21" fill="none" xmlns="http://www.w3.org/2000/svg">
<path d="M6.34564 0.569373C5.28396 0.619431 4.55896 0.788894 3.92509 1.03785C3.26919 1.29354 2.71315 1.63654 2.15994 2.19175C1.60682 2.74695 1.26606 3.30332 1.01228 3.96039C0.766653 4.5955 0.600183 5.32117 0.553285 6.38343C0.506387 7.4457 0.495993 7.7872 0.501232 10.497C0.506387 13.2065 0.518361 13.5462 0.569832 14.6107C0.620555 15.6722 0.789353 16.397 1.03839 17.031C1.2945 17.687 1.63709 18.2428 2.19254 18.7962C2.74791 19.3496 3.30386 19.6895 3.96243 19.9437C4.59704 20.189 5.32287 20.3562 6.38497 20.4027C7.44707 20.4492 7.78891 20.46 10.4978 20.4548C13.2067 20.4496 13.5478 20.4376 14.612 20.3871C15.6764 20.3366 16.3973 20.1666 17.0316 19.9187C17.6876 19.6621 18.2438 19.32 18.7967 18.7645C19.3497 18.2089 19.6902 17.6521 19.9438 16.9947C20.1897 16.3601 20.3567 15.6343 20.4028 14.573C20.4494 13.5079 20.4603 13.1679 20.4552 10.4586C20.4499 7.74929 20.4377 7.40961 20.3872 6.34552C20.3368 5.28142 20.1677 4.55883 19.9188 3.92438C19.6624 3.2684 19.3202 2.71303 18.765 2.15924C18.2098 1.60545 17.6525 1.26519 16.9955 1.01216C16.3604 0.766443 15.635 0.599058 14.5729 0.553159C13.5108 0.507259 13.169 0.495368 10.4591 0.50069C7.74916 0.505845 7.4099 0.517486 6.34564 0.569373ZM6.46222 18.6076C5.48934 18.5653 4.96108 18.4036 4.60902 18.2683C4.14287 18.0887 3.81076 17.8716 3.45994 17.5241C3.10904 17.1767 2.89359 16.8434 2.71157 16.3783C2.57487 16.0262 2.41023 15.4985 2.36475 14.5257C2.31527 13.4742 2.30488 13.1585 2.29906 10.4945C2.29324 7.83052 2.30346 7.51513 2.34953 6.46326C2.39111 5.49121 2.55375 4.96237 2.68879 4.61047C2.8684 4.14374 3.08476 3.81221 3.433 3.46164C3.78124 3.11099 4.11351 2.89505 4.57908 2.71303C4.93081 2.57574 5.45841 2.41252 6.43087 2.3662C7.48316 2.31631 7.79847 2.30633 10.4621 2.30051C13.1257 2.29469 13.4418 2.30467 14.4945 2.35107C15.4666 2.39331 15.9957 2.55437 16.3471 2.69033C16.8135 2.86994 17.1454 3.08563 17.496 3.43454C17.8466 3.78328 18.0627 4.11439 18.2448 4.58095C18.3822 4.9316 18.5455 5.45903 18.5914 6.43216C18.6415 7.48445 18.6529 7.80001 18.6576 10.4634C18.6624 13.1267 18.653 13.443 18.6069 14.4946C18.5645 15.4674 18.4032 15.9959 18.2676 16.3484C18.088 16.8143 17.8716 17.1466 17.5231 17.497C17.1747 17.8475 16.8428 18.0634 16.377 18.2454C16.0258 18.3825 15.4975 18.5461 14.5259 18.5925C13.4735 18.6419 13.1582 18.6523 10.4936 18.6581C7.82899 18.664 7.51451 18.6532 6.46222 18.6076ZM14.5967 5.14472C14.5971 5.38156 14.6677 5.61297 14.7997 5.80967C14.9316 6.00637 15.1189 6.15953 15.3378 6.24977C15.5568 6.34002 15.7976 6.3633 16.0298 6.31667C16.262 6.27004 16.4752 6.1556 16.6424 5.98781C16.8095 5.82003 16.9232 5.60644 16.9689 5.37406C17.0147 5.14168 16.9905 4.90095 16.8994 4.68231C16.8084 4.46368 16.6545 4.27697 16.4573 4.14578C16.2601 4.0146 16.0284 3.94485 15.7916 3.94534C15.4741 3.946 15.1699 4.07272 14.9458 4.29763C14.7218 4.52254 14.5962 4.82724 14.5967 5.14472ZM5.3548 10.4877C5.36038 13.3175 7.65861 15.6063 10.4878 15.601C13.3171 15.5956 15.6074 13.2976 15.6021 10.4678C15.5967 7.63795 13.298 5.34853 10.4683 5.3541C7.63865 5.35967 5.34948 7.65823 5.3548 10.4877ZM7.15213 10.4841C7.15083 9.82632 7.34463 9.18288 7.70902 8.63519C8.07341 8.0875 8.59203 7.66017 9.19928 7.40722C9.80654 7.15428 10.4752 7.08709 11.1206 7.21414C11.7661 7.3412 12.3593 7.6568 12.8254 8.12103C13.2915 8.58526 13.6094 9.17727 13.7391 9.82221C13.8687 10.4671 13.8042 11.136 13.5536 11.7443C13.3031 12.3525 12.8778 12.8729 12.3316 13.2394C11.7854 13.606 11.1427 13.8023 10.4849 13.8037C10.0481 13.8046 9.61534 13.7194 9.21145 13.5531C8.80755 13.3868 8.44037 13.1425 8.13089 12.8342C7.82141 12.526 7.57568 12.1598 7.40775 11.7566C7.23981 11.3533 7.15295 10.921 7.15213 10.4841Z" fill="#fff"/>
</svg>
