<svg width="1440" height="811" viewBox="0 0 1440 811" fill="none" xmlns="http://www.w3.org/2000/svg">
<rect y="0.9375" width="1440" height="810" fill="#FFF"/>
<path d="M689.004 401.21V409.938H687.159V402.962H687.108L685.109 404.214V402.578L687.27 401.21H689.004ZM694.596 401.091C695.045 401.091 695.477 401.166 695.892 401.317C696.309 401.467 696.681 401.707 697.008 402.037C697.338 402.366 697.598 402.804 697.788 403.349C697.981 403.892 698.079 404.558 698.082 405.348C698.082 406.089 697.998 406.751 697.831 407.334C697.666 407.913 697.429 408.406 697.119 408.812C696.809 409.219 696.436 409.528 695.998 409.741C695.561 409.952 695.072 410.057 694.532 410.057C693.95 410.057 693.436 409.945 692.99 409.72C692.544 409.493 692.184 409.185 691.911 408.795C691.642 408.403 691.478 407.963 691.421 407.474H693.241C693.312 407.793 693.461 408.04 693.688 408.216C693.916 408.389 694.197 408.476 694.532 408.476C695.1 408.476 695.532 408.229 695.828 407.734C696.123 407.237 696.272 406.557 696.275 405.693H696.215C696.085 405.949 695.909 406.169 695.687 406.354C695.465 406.536 695.211 406.676 694.924 406.776C694.64 406.875 694.338 406.925 694.017 406.925C693.502 406.925 693.044 406.804 692.64 406.562C692.237 406.321 691.919 405.989 691.686 405.565C691.453 405.142 691.336 404.659 691.336 404.116C691.333 403.531 691.468 403.01 691.741 402.553C692.014 402.095 692.394 401.737 692.883 401.479C693.375 401.217 693.946 401.088 694.596 401.091ZM694.609 402.54C694.322 402.54 694.066 402.608 693.842 402.744C693.62 402.881 693.444 403.064 693.313 403.294C693.186 403.524 693.123 403.781 693.126 404.065C693.126 404.352 693.188 404.611 693.313 404.841C693.441 405.068 693.615 405.25 693.833 405.386C694.055 405.52 694.308 405.587 694.592 405.587C694.805 405.587 695.002 405.547 695.184 405.467C695.366 405.388 695.524 405.278 695.657 405.139C695.794 404.997 695.9 404.834 695.977 404.649C696.054 404.464 696.092 404.268 696.092 404.061C696.089 403.786 696.024 403.533 695.896 403.303C695.768 403.072 695.592 402.888 695.367 402.749C695.143 402.609 694.89 402.54 694.609 402.54ZM699.72 409.938V408.608L702.827 405.732C703.091 405.476 703.313 405.246 703.492 405.041C703.673 404.837 703.811 404.636 703.905 404.44C703.999 404.241 704.046 404.027 704.046 403.797C704.046 403.541 703.987 403.321 703.871 403.136C703.754 402.949 703.595 402.805 703.394 402.706C703.192 402.604 702.963 402.553 702.708 402.553C702.441 402.553 702.208 402.607 702.009 402.714C701.81 402.822 701.656 402.977 701.548 403.179C701.441 403.381 701.387 403.621 701.387 403.899H699.635C699.635 403.328 699.764 402.832 700.023 402.412C700.281 401.991 700.644 401.666 701.11 401.436C701.575 401.206 702.112 401.091 702.72 401.091C703.345 401.091 703.889 401.202 704.352 401.423C704.818 401.642 705.181 401.946 705.439 402.335C705.698 402.724 705.827 403.17 705.827 403.673C705.827 404.003 705.762 404.328 705.631 404.649C705.503 404.97 705.274 405.327 704.945 405.719C704.615 406.108 704.151 406.575 703.551 407.121L702.277 408.369V408.429H705.942V409.938H699.72ZM711.061 410.129C710.328 410.126 709.697 409.946 709.169 409.588C708.643 409.23 708.238 408.712 707.954 408.033C707.673 407.354 707.534 406.537 707.537 405.582C707.537 404.631 707.677 403.82 707.959 403.149C708.243 402.479 708.647 401.969 709.173 401.619C709.701 401.267 710.331 401.091 711.061 401.091C711.791 401.091 712.419 401.267 712.944 401.619C713.473 401.972 713.879 402.483 714.163 403.153C714.447 403.821 714.588 404.631 714.585 405.582C714.585 406.54 714.443 407.358 714.159 408.037C713.878 408.716 713.474 409.234 712.949 409.592C712.423 409.95 711.794 410.129 711.061 410.129ZM711.061 408.599C711.561 408.599 711.96 408.348 712.258 407.845C712.557 407.342 712.704 406.588 712.701 405.582C712.701 404.92 712.633 404.369 712.497 403.929C712.363 403.489 712.173 403.158 711.926 402.936C711.682 402.714 711.393 402.604 711.061 402.604C710.564 402.604 710.166 402.852 709.868 403.349C709.569 403.847 709.419 404.591 709.416 405.582C709.416 406.253 709.483 406.812 709.616 407.261C709.753 407.707 709.944 408.043 710.192 408.267C710.439 408.489 710.728 408.599 711.061 408.599ZM721.617 408.727L716.525 403.643L717.641 402.514L722.738 407.611L721.617 408.727ZM717.641 408.727L716.525 407.611L721.617 402.514L722.738 403.643L717.641 408.727ZM728.574 401.21V409.938H726.729V402.962H726.677L724.679 404.214V402.578L726.839 401.21H728.574ZM734.43 410.129C733.697 410.126 733.066 409.946 732.538 409.588C732.012 409.23 731.607 408.712 731.323 408.033C731.042 407.354 730.903 406.537 730.906 405.582C730.906 404.631 731.046 403.82 731.328 403.149C731.612 402.479 732.017 401.969 732.542 401.619C733.071 401.267 733.7 401.091 734.43 401.091C735.16 401.091 735.788 401.267 736.313 401.619C736.842 401.972 737.248 402.483 737.532 403.153C737.816 403.821 737.957 404.631 737.954 405.582C737.954 406.54 737.812 407.358 737.528 408.037C737.247 408.716 736.843 409.234 736.318 409.592C735.792 409.95 735.163 410.129 734.43 410.129ZM734.43 408.599C734.93 408.599 735.329 408.348 735.627 407.845C735.926 407.342 736.073 406.588 736.071 405.582C736.071 404.92 736.002 404.369 735.866 403.929C735.732 403.489 735.542 403.158 735.295 402.936C735.051 402.714 734.762 402.604 734.43 402.604C733.933 402.604 733.535 402.852 733.237 403.349C732.938 403.847 732.788 404.591 732.785 405.582C732.785 406.253 732.852 406.812 732.985 407.261C733.122 407.707 733.313 408.043 733.561 408.267C733.808 408.489 734.097 408.599 734.43 408.599ZM742.885 410.057C742.229 410.057 741.645 409.95 741.134 409.737C740.625 409.521 740.226 409.227 739.937 408.855C739.647 408.483 739.502 408.061 739.502 407.589C739.502 407.226 739.584 406.892 739.749 406.588C739.917 406.281 740.144 406.027 740.431 405.825C740.718 405.621 741.039 405.49 741.394 405.433V405.374C740.928 405.28 740.55 405.054 740.26 404.696C739.971 404.335 739.826 403.916 739.826 403.439C739.826 402.987 739.958 402.585 740.222 402.233C740.486 401.878 740.848 401.599 741.309 401.398C741.772 401.193 742.297 401.091 742.885 401.091C743.473 401.091 743.998 401.193 744.458 401.398C744.921 401.602 745.285 401.882 745.549 402.237C745.813 402.589 745.946 402.99 745.949 403.439C745.946 403.919 745.799 404.338 745.506 404.696C745.214 405.054 744.839 405.28 744.381 405.374V405.433C744.731 405.49 745.047 405.621 745.331 405.825C745.618 406.027 745.846 406.281 746.013 406.588C746.184 406.892 746.27 407.226 746.273 407.589C746.27 408.061 746.124 408.483 745.834 408.855C745.545 409.227 745.144 409.521 744.633 409.737C744.124 409.95 743.542 410.057 742.885 410.057ZM742.885 408.702C743.178 408.702 743.434 408.649 743.652 408.544C743.871 408.436 744.042 408.288 744.164 408.101C744.289 407.911 744.351 407.692 744.351 407.445C744.351 407.192 744.287 406.969 744.16 406.776C744.032 406.58 743.858 406.426 743.64 406.315C743.421 406.202 743.17 406.145 742.885 406.145C742.604 406.145 742.353 406.202 742.131 406.315C741.91 406.426 741.735 406.58 741.607 406.776C741.482 406.969 741.42 407.192 741.42 407.445C741.42 407.692 741.481 407.911 741.603 408.101C741.725 408.288 741.897 408.436 742.118 408.544C742.34 408.649 742.596 408.702 742.885 408.702ZM742.885 404.803C743.13 404.803 743.347 404.753 743.537 404.653C743.728 404.554 743.877 404.416 743.985 404.24C744.093 404.064 744.147 403.861 744.147 403.631C744.147 403.403 744.093 403.205 743.985 403.034C743.877 402.861 743.729 402.726 743.542 402.629C743.354 402.53 743.135 402.48 742.885 402.48C742.638 402.48 742.42 402.53 742.229 402.629C742.039 402.726 741.89 402.861 741.782 403.034C741.677 403.205 741.624 403.403 741.624 403.631C741.624 403.861 741.678 404.064 741.786 404.24C741.894 404.416 742.043 404.554 742.233 404.653C742.424 404.753 742.641 404.803 742.885 404.803ZM751.345 410.129C750.612 410.126 749.982 409.946 749.453 409.588C748.928 409.23 748.523 408.712 748.239 408.033C747.957 407.354 747.818 406.537 747.821 405.582C747.821 404.631 747.962 403.82 748.243 403.149C748.527 402.479 748.932 401.969 749.457 401.619C749.986 401.267 750.615 401.091 751.345 401.091C752.075 401.091 752.703 401.267 753.229 401.619C753.757 401.972 754.163 402.483 754.447 403.153C754.732 403.821 754.872 404.631 754.869 405.582C754.869 406.54 754.727 407.358 754.443 408.037C754.162 408.716 753.759 409.234 753.233 409.592C752.707 409.95 752.078 410.129 751.345 410.129ZM751.345 408.599C751.845 408.599 752.244 408.348 752.543 407.845C752.841 407.342 752.989 406.588 752.986 405.582C752.986 404.92 752.918 404.369 752.781 403.929C752.648 403.489 752.457 403.158 752.21 402.936C751.966 402.714 751.678 402.604 751.345 402.604C750.848 402.604 750.45 402.852 750.152 403.349C749.854 403.847 749.703 404.591 749.7 405.582C749.7 406.253 749.767 406.812 749.901 407.261C750.037 407.707 750.229 408.043 750.476 408.267C750.723 408.489 751.013 408.599 751.345 408.599Z" fill="black"/>
</svg>
